<svg width="18" height="18" viewBox="0 0 18 18" fill="none" xmlns="http://www.w3.org/2000/svg">
<g clip-path="url(#clip0_1336_7229)">
<path fill-rule="evenodd" clip-rule="evenodd" d="M9.00039 0.752563C4.28342 0.752563 0.462891 4.57309 0.462891 9.29006C0.462891 13.0679 2.90675 16.2588 6.30041 17.39C6.72728 17.4647 6.88736 17.2086 6.88736 16.9845C6.88736 16.7817 6.87669 16.1094 6.87669 15.3944C4.73164 15.7892 4.1767 14.8715 4.00595 14.3912C3.90991 14.1458 3.4937 13.3881 3.13086 13.1853C2.83205 13.0252 2.40517 12.6304 3.12019 12.6197C3.79252 12.609 4.27275 13.2387 4.43283 13.4948C5.2012 14.7861 6.42847 14.4232 6.91938 14.1991C6.99408 13.6442 7.21819 13.2707 7.46364 13.0572C5.56405 12.8438 3.57908 12.1074 3.57908 8.84184C3.57908 7.91339 3.90991 7.14502 4.45417 6.54739C4.3688 6.33395 4.06998 5.45886 4.53955 4.28495C4.53955 4.28495 5.25456 4.06084 6.88736 5.16005C7.57036 4.96795 8.29605 4.87191 9.02174 4.87191C9.74742 4.87191 10.4731 4.96795 11.1561 5.16005C12.7889 4.05017 13.5039 4.28495 13.5039 4.28495C13.9735 5.45886 13.6747 6.33395 13.5893 6.54739C14.1336 7.14502 14.4644 7.90272 14.4644 8.84184C14.4644 12.1181 12.4688 12.8438 10.5692 13.0572C10.8786 13.324 11.1454 13.8363 11.1454 14.6367C11.1454 15.7786 11.1348 16.6963 11.1348 16.9845C11.1348 17.2086 11.2948 17.4754 11.7217 17.39C13.4165 16.8178 14.8893 15.7285 15.9326 14.2755C16.9759 12.8225 17.5374 11.0789 17.5379 9.29006C17.5379 4.57309 13.7174 0.752563 9.00039 0.752563Z" fill="black"/>
</g>
<defs>
<clipPath id="clip0_1336_7229">
<rect x="0.462891" y="0.752563" width="17.075" height="17.075" rx="8.5375" fill="white"/>
</clipPath>
</defs>
</svg>
