<svg width="18" height="18" viewBox="0 0 18 18" fill="none" xmlns="http://www.w3.org/2000/svg">
<g clip-path="url(#clip0_1336_7222)">
<path d="M17.3715 7.61788H16.6839V7.58245H9.00024V10.9974H13.8251C13.1212 12.9853 11.2298 14.4123 9.00024 14.4123C6.17139 14.4123 3.87783 12.1188 3.87783 9.28992C3.87783 6.46106 6.17139 4.1675 9.00024 4.1675C10.306 4.1675 11.494 4.66011 12.3985 5.46476L14.8133 3.04997C13.2886 1.62892 11.249 0.752563 9.00024 0.752563C4.28549 0.752563 0.462891 4.57516 0.462891 9.28992C0.462891 14.0047 4.28549 17.8273 9.00024 17.8273C13.715 17.8273 17.5376 14.0047 17.5376 9.28992C17.5376 8.71749 17.4787 8.15872 17.3715 7.61788Z" fill="#FFC107"/>
<path d="M1.44629 5.31621L4.25124 7.37328C5.01021 5.49421 6.8483 4.1675 8.99929 4.1675C10.3051 4.1675 11.493 4.66011 12.3976 5.46475L14.8124 3.04996C13.2876 1.62892 11.248 0.752563 8.99929 0.752563C5.72009 0.752563 2.8763 2.60389 1.44629 5.31621Z" fill="#FF3D00"/>
<path d="M9.00077 17.8276C11.206 17.8276 13.2097 16.9837 14.7246 15.6113L12.0823 13.3754C11.1964 14.0491 10.1138 14.4135 9.00077 14.4126C6.7802 14.4126 4.89473 12.9967 4.18442 11.0208L1.40039 13.1658C2.81332 15.9306 5.68273 17.8276 9.00077 17.8276Z" fill="#4CAF50"/>
<path d="M17.3713 7.61783H16.6836V7.5824H9V10.9973H13.8249C13.4882 11.9435 12.8817 12.7702 12.0803 13.3754L12.0816 13.3746L14.7239 15.6105C14.5369 15.7804 17.5374 13.5585 17.5374 9.28987C17.5374 8.71744 17.4784 8.15867 17.3713 7.61783Z" fill="#1976D2"/>
</g>
<defs>
<clipPath id="clip0_1336_7222">
<rect x="0.462891" y="0.752563" width="17.075" height="17.075" rx="8.5375" fill="white"/>
</clipPath>
</defs>
</svg>
