<svg width="42" height="42" viewBox="0 0 42 42" fill="none" xmlns="http://www.w3.org/2000/svg">
<path d="M6.15852 8.04831C6.07745 8.0999 6.00227 8.16022 5.93434 8.22818L2.14148 12.021C1.61316 12.5504 1.3145 13.2664 1.31011 14.0143C1.30572 14.7622 1.59595 15.4817 2.11802 16.0172L2.14279 16.0433L2.26009 16.1723L2.71106 16.6598C3.10208 17.0808 3.66384 17.6868 4.35724 18.4246C6.13152 20.3149 7.92551 22.1867 9.73892 24.0395C13.868 28.2534 18.8274 33.0746 21.7822 35.061C25.1097 37.308 28.1336 38.5736 30.3415 39.2787C31.4468 39.6306 32.3461 39.8444 32.9809 39.9695C33.2954 40.0321 33.6119 40.0847 33.9298 40.1272L33.9754 40.1324C34.8552 40.2719 35.6333 40.2967 36.3254 40.152C37.0066 40.0178 37.6318 39.6823 38.1201 39.1888L39.0325 38.2764C39.1003 38.2086 39.1589 38.1344 39.2098 38.0561C39.621 37.6831 39.9494 37.228 40.1739 36.7202C40.3984 36.2123 40.514 35.6631 40.5132 35.1079C40.3607 33.4226 38.7705 32.449 37.3629 31.5888C36.6544 31.2376 36.022 30.7504 35.5016 30.155L34.4654 27.7359H34.4746C34.8375 27.7359 35.1856 27.5918 35.4423 27.3351C35.6989 27.0784 35.8431 26.7304 35.8431 26.3674C35.8431 26.0044 35.6989 25.6563 35.4423 25.3997C35.1856 25.143 34.8375 24.9988 34.4746 24.9988H33.2924L32.453 23.0385C32.7493 22.921 32.9952 22.7038 33.1484 22.4243C33.3016 22.1449 33.3525 21.8207 33.2922 21.5077C33.232 21.1948 33.0644 20.9127 32.8184 20.7101C32.5724 20.5074 32.2634 20.397 31.9447 20.3979H31.3217L30.6283 18.7804C30.9863 18.7648 31.3238 18.6095 31.5685 18.3477C31.8132 18.086 31.9455 17.7387 31.937 17.3805C31.9285 17.0223 31.7798 16.6817 31.5229 16.432C31.266 16.1822 30.9214 16.0431 30.5631 16.0446H29.4565L28.9208 14.7933C28.84 14.5978 28.7905 14.4571 28.7488 14.3371C28.575 13.7677 28.2508 13.2557 27.8104 12.8552L27.1326 12.1761C26.8203 11.8755 26.4423 11.6515 26.0286 11.5218V10.9353C25.214 8.47843 22.2423 7.6221 20.2494 9.11709L17.4758 6.28874C17.7252 6.03708 17.9224 5.73862 18.056 5.41051C18.1897 5.08241 18.2571 4.73112 18.2546 4.37685C18.2521 4.02258 18.1795 3.6723 18.0412 3.34614C17.9028 3.01999 17.7014 2.72439 17.4484 2.47634C16.6879 1.71838 15.658 1.29279 14.5843 1.29279C13.5105 1.29279 12.4806 1.71838 11.7201 2.47634L6.15852 8.04831ZM18.4912 20.0134L18.4951 19.0424C18.4951 16.8266 17.6348 14.7151 16.0968 13.138L10.4792 7.40835L13.5617 4.32193C13.7002 4.18294 13.8667 4.07509 14.0501 4.00558C14.2336 3.93607 14.4297 3.90649 14.6255 3.91883C14.8213 3.93116 15.0122 3.98513 15.1854 4.07712C15.3587 4.16911 15.5103 4.297 15.6302 4.45227C15.1307 4.95441 14.8503 5.63389 14.8503 6.34218C14.8503 7.05046 15.1307 7.72994 15.6302 8.23209L21.4042 14.0217C21.9258 14.5244 22.6219 14.8053 23.3463 14.8053C24.0706 14.8053 24.7668 14.5244 25.2883 14.0217L25.9661 14.6995C26.125 14.8236 26.2374 14.9976 26.2854 15.1935L26.2893 15.2065C26.3454 15.3681 26.4144 15.5636 26.5239 15.8178L26.6204 16.0446H25.39C24.634 16.0446 24.0214 16.6572 24.0214 17.4131C24.0252 17.7749 24.1705 18.1209 24.4264 18.3767C24.6822 18.6326 25.0282 18.778 25.39 18.7817H27.7934L28.4855 20.3979H27.4624C26.7064 20.3979 26.0938 21.0105 26.0938 21.7664C26.0975 22.1282 26.2429 22.4742 26.4988 22.73C26.7546 22.9859 27.1005 23.1313 27.4624 23.135H29.6586L30.4562 24.9988H29.1828C28.4269 24.9988 27.8143 25.6114 27.8143 26.3674C27.8143 26.7454 27.9707 27.0843 28.2183 27.3319C28.466 27.5795 28.8048 27.7229 29.1828 27.7359H31.6293L33.106 31.1847C33.788 32.3307 34.7995 33.2446 36.0087 33.8071L36.0126 33.8097C36.6682 34.2099 37.8868 34.9528 37.9194 35.3243C37.9194 35.3972 37.8477 35.6201 37.5219 35.9851C35.2942 35.7066 33.1077 35.1632 31.0089 34.3663C27.1743 32.8908 23.2107 30.2697 21.7314 25.6323L21.7301 25.6297C21.2022 23.9874 20.0122 22.0753 18.6332 20.2037C18.586 20.1401 18.5387 20.0767 18.4912 20.0134ZM3.98186 14.1951C3.94958 14.1555 3.93194 14.106 3.93194 14.055C3.93194 14.0039 3.94958 13.9544 3.98186 13.9148L6.89493 11.0005C8.65294 12.7237 10.3611 14.497 12.0172 16.3183C13.5904 18.0518 15.2053 19.9482 16.5335 21.7495C17.8812 23.5781 18.8548 25.2061 19.2471 26.4247C19.3075 26.6151 19.3718 26.8041 19.44 26.9917L3.98447 14.1977L3.98186 14.1951Z" fill="black"/>
</svg>
